<?xml version="1.0" encoding="utf-8"?>
<!-- Generator: Adobe Illustrator 27.0.0, SVG Export Plug-In . SVG Version: 6.00 Build 0)  -->
<svg version="1.1" id="Capa_1" xmlns="http://www.w3.org/2000/svg" xmlns:xlink="http://www.w3.org/1999/xlink" x="0px" y="0px"
	 viewBox="0 0 220 100" style="enable-background:new 0 0 220 100;" xml:space="preserve">
<g>
	<g>
		<path d="M19.7,39.7V63c0,1.9,0.4,3.3,1.2,4.1c0.8,0.8,2.2,1.2,4.2,1.2h4.8v5.5H24c-3.6,0-6.4-0.8-8.2-2.5
			c-1.8-1.7-2.7-4.4-2.7-8.3V39.7H8v-5.4h5.1v-9.9h6.5v9.9h10.3v5.4H19.7z"/>
		<path d="M86.1,34.3v39.4h-6.5v-5.8c-1.2,2-3,3.6-5.2,4.7c-2.2,1.1-4.7,1.7-7.4,1.7c-3.1,0-5.8-0.6-8.3-1.9
			c-2.4-1.3-4.4-3.2-5.8-5.7c-1.4-2.5-2.1-5.6-2.1-9.3V34.3h6.5v22.2c0,3.9,1,6.9,2.9,8.9c2,2.1,4.6,3.1,8.1,3.1
			c3.5,0,6.3-1.1,8.3-3.2c2-2.2,3-5.3,3-9.4V34.3H86.1z"/>
		<path d="M141.4,38c3,2.9,4.5,7.1,4.5,12.5v23.2h-6.5V51.5c0-3.9-1-6.9-2.9-9c-2-2.1-4.6-3.1-8.1-3.1c-3.5,0-6.2,1.1-8.2,3.2
			c-2,2.2-3.1,5.3-3.1,9.4v21.8h-6.5V34.3h6.5V40c1.3-2,3.1-3.6,5.3-4.7c2.2-1.1,4.7-1.7,7.4-1.7C134.6,33.6,138.5,35.1,141.4,38z"
			/>
	</g>
	<path d="M187.1,74.6c-3.5,0-7-0.4-10.4-1.1c-1.5-0.3-3.2-0.7-4.6-1.8c-1.6-1.3-2.5-3.2-3.2-4.8c-2.3-5.3-5.2-11.8-4-18.4
		c1.8-10,12.5-15.9,21.6-17.2c2.2-0.3,5-0.5,7.8,0.4c5.2,1.8,8,6.9,10.5,12.1c2.4,5,4.9,10.3,6.2,15.9c0.8,3.5,1.6,10-2.4,14.2
		l-1.3-1.2c3.4-3.6,2.7-9.4,2-12.5c-1.3-5.4-3.7-10.6-6.1-15.5c-2.3-4.8-4.9-9.6-9.5-11.1c-2.4-0.8-4.9-0.6-6.9-0.3
		c-8.5,1.2-18.4,6.6-20.1,15.7c-1.1,6.1,1.7,12.3,3.9,17.4c0.6,1.5,1.4,3.1,2.7,4.1c1.1,0.9,2.6,1.2,3.9,1.5
		c4.3,0.9,8.7,1.2,13.1,0.9c2.3-0.1,4.8-0.5,6.4-2.1c1.3-1.2,1.9-3.1,2.4-4.7c2.5-7.4,4.2-15.1,0.1-20.4c-2.2-2.8-5.7-4.3-8.2-5.2
		c-4.2-1.5-7.3-1.7-9.8-0.6c-4.3,2-5.7,7.4-6.5,12.4c-0.3,2.2-0.6,4.2,0.1,5.9c0.7,1.7,2.3,3.2,4.6,4.1c0.6,0.2,1.3,0.4,1.9,0.6
		l-1.8-4.4c-0.9-2.1-1.9-4.8-1.6-7.5c0.3-2.6,2.1-4.9,4.8-6.1c2.9-1.4,6.2-1.3,8.6,0.2c2.2,1.4,3.7,3.7,4.3,6.5
		c0.6,3-0.1,6.2-1.8,8.5c-0.6,0.8-1.4,1.6-2.2,2.2c-0.1,1-0.3,2-0.6,3c-0.7,2.1-1.9,3.4-3.4,3.7c-2.1,0.5-4.1-1.1-5.5-4.2
		c-1.1-0.1-2.3-0.4-3.4-0.8c-2.7-1.1-4.7-2.9-5.6-5.1c-0.8-2.1-0.6-4.4-0.2-6.8c0.8-5.2,2.4-11.4,7.5-13.7c3.8-1.8,8.2-0.5,11.2,0.6
		c2.7,1,6.5,2.6,9,5.8c4.6,6,2.8,14.1,0.2,22c-0.6,1.7-1.3,3.9-2.9,5.4c-2.1,2-5,2.4-7.5,2.5C189.1,74.6,188.1,74.6,187.1,74.6z
		 M184,64.7c0.7,1.2,1.7,2.7,3.1,2.4c1.1-0.2,1.8-1.7,2-2.5c0.1-0.4,0.3-0.8,0.3-1.3C187.8,64.1,185.9,64.6,184,64.7z M183.2,62.9
		c2.3,0.1,4.6-0.6,6.5-1.8c0-1.3-0.3-2.4-0.9-3.4c-0.9-1.5-5.9-2.6-8.4-2c0.2,0.6,0.5,1.2,0.7,1.8L183.2,62.9z M182.1,53.9
		c3.1,0,7,1.1,8.1,3c0.5,0.9,0.9,1.9,1.1,3c0.3-0.3,0.6-0.6,0.9-1c1.4-1.9,2-4.6,1.5-7.1c-0.4-2.3-1.7-4.2-3.4-5.3
		c-1.9-1.2-4.5-1.2-6.9-0.1c-2.1,1-3.5,2.8-3.8,4.7c-0.1,1,0,2.1,0.2,3.1C180.5,54,181.3,53.9,182.1,53.9z"/>
</g>
<g>
</g>
<g>
</g>
<g>
</g>
<g>
</g>
<g>
</g>
<g>
</g>
</svg>
